<svg width="900" height="180" viewBox="0 0 900 180" fill="none" xmlns="http://www.w3.org/2000/svg">
<path d="M30 154C30 151.791 31.7909 150 34 150H82C86.4183 150 90 153.582 90 158V172C90 176.418 86.4183 180 82 180H38C33.5817 180 30 176.418 30 172V154Z" fill="#D1B4F4"/>
<path d="M30 4C30 1.79086 31.7909 0 34 0H142C146.418 0 150 3.58172 150 8V22C150 26.4183 146.418 30 142 30H38C33.5817 30 30 26.4183 30 22V4Z" fill="#D1B4F4"/>
<path d="M150 34C150 31.7909 151.791 30 154 30H172C176.418 30 180 33.5817 180 38V82C180 86.4183 176.418 90 172 90H158C153.582 90 150 86.4183 150 82V34Z" fill="#D1B4F4"/>
<path d="M0 34C0 31.7909 1.79086 30 4 30H22C26.4183 30 30 33.5817 30 38V142C30 146.418 26.4183 150 22 150H8C3.58172 150 0 146.418 0 142V34Z" fill="#D1B4F4"/>
<path d="M90 90H142C146.418 90 150 93.5817 150 98V112C150 116.418 146.418 120 142 120H98C93.5817 120 90 116.418 90 112V90Z" fill="#D1B4F4"/>
<path d="M150 90H135C135 90 141 90 145.5 94.5C150 99 150 105 150 105V90Z" fill="#D1B4F4"/>
<path d="M150 90L165 90C165 90 159 90 154.5 85.5C150 81 150 75 150 75L150 90Z" fill="#D1B4F4"/>
<path d="M150 90L150 75C150 75 150 81 145.5 85.5C141 90 135 90 135 90L150 90Z" fill="#D1B4F4"/>
<path d="M30 30H15C15 30 21 30 25.5 34.5C30 39 30 45 30 45V30Z" fill="#D1B4F4"/>
<path d="M30 30L45 30C45 30 39 30 34.5 25.5C30 21 30 15 30 15L30 30Z" fill="#D1B4F4"/>
<path d="M30 30L30 45C30 45 30 39 34.5 34.5C39 30 45 30 45 30L30 30Z" fill="#D1B4F4"/>
<path d="M150 30H135C135 30 141 30 145.5 34.5C150 39 150 45 150 45V30Z" fill="#D1B4F4"/>
<path d="M150 30L150 15C150 15 150 21 145.5 25.5C141 30 135 30 135 30L150 30Z" fill="#D1B4F4"/>
<path d="M150 30L150 45C150 45 150 39 154.5 34.5C159 30 165 30 165 30L150 30Z" fill="#D1B4F4"/>
<path d="M30 150L45 150C45 150 39 150 34.5 145.5C30 141 30 135 30 135L30 150Z" fill="#D1B4F4"/>
<path d="M30 150L30 135C30 135 30 141 25.5 145.5C21 150 15 150 15 150L30 150Z" fill="#D1B4F4"/>
<path d="M30 150L30 165C30 165 30 159 34.5 154.5C39 150 45 150 45 150L30 150Z" fill="#D1B4F4"/>
<path d="M870 26C870 28.2091 868.209 30 866 30L818 30C813.582 30 810 26.4183 810 22L810 8.00001C810 3.58173 813.582 4.93224e-06 818 4.54598e-06L862 6.99382e-07C866.418 3.13124e-07 870 3.58172 870 8L870 26Z" fill="#D1B4F4"/>
<path d="M870 176C870 178.209 868.209 180 866 180L758 180C753.582 180 750 176.418 750 172L750 158C750 153.582 753.582 150 758 150L862 150C866.418 150 870 153.582 870 158L870 176Z" fill="#D1B4F4"/>
<path d="M750 146C750 148.209 748.209 150 746 150L728 150C723.582 150 720 146.418 720 142L720 98C720 93.5817 723.582 90 728 90L742 90C746.418 90 750 93.5817 750 98L750 146Z" fill="#D1B4F4"/>
<path d="M900 146C900 148.209 898.209 150 896 150L878 150C873.582 150 870 146.418 870 142L870 38C870 33.5817 873.582 30 878 30L892 30C896.418 30 900 33.5817 900 38L900 146Z" fill="#D1B4F4"/>
<path d="M810 90L758 90C753.582 90 750 86.4183 750 82L750 68C750 63.5817 753.582 60 758 60L802 60C806.418 60 810 63.5817 810 68L810 90Z" fill="#D1B4F4"/>
<path d="M750 90L765 90C765 90 759 90 754.5 85.5C750 81 750 75 750 75L750 90Z" fill="#D1B4F4"/>
<path d="M750 90H735C735 90 741 90 745.5 94.5C750 99 750 105 750 105V90Z" fill="#D1B4F4"/>
<path d="M750 90L750 105C750 105 750 99 754.5 94.5C759 90 765 90 765 90L750 90Z" fill="#D1B4F4"/>
<path d="M870 150L885 150C885 150 879 150 874.5 145.5C870 141 870 135 870 135L870 150Z" fill="#D1B4F4"/>
<path d="M870 150H855C855 150 861 150 865.5 154.5C870 159 870 165 870 165V150Z" fill="#D1B4F4"/>
<path d="M870 150L870 135C870 135 870 141 865.5 145.5C861 150 855 150 855 150L870 150Z" fill="#D1B4F4"/>
<path d="M750 150L765 150C765 150 759 150 754.5 145.5C750 141 750 135 750 135L750 150Z" fill="#D1B4F4"/>
<path d="M750 150L750 165C750 165 750 159 754.5 154.5C759 150 765 150 765 150L750 150Z" fill="#D1B4F4"/>
<path d="M750 150L750 135C750 135 750 141 745.5 145.5C741 150 735 150 735 150L750 150Z" fill="#D1B4F4"/>
<path d="M870 30H855C855 30 861 30 865.5 34.5C870 39 870 45 870 45V30Z" fill="#D1B4F4"/>
<path d="M870 30L870 45C870 45 870 39 874.5 34.5C879 30 885 30 885 30L870 30Z" fill="#D1B4F4"/>
<path d="M870 30L870 15C870 15 870 21 865.5 25.5C861 30 855 30 855 30L870 30Z" fill="#D1B4F4"/>
<path d="M300 56C300 58.2091 298.209 60 296 60L218 60C213.582 60 210 56.4183 210 52L210 38C210 33.5817 213.582 30 218 30L292 30C296.418 30 300 33.5817 300 38L300 56Z" fill="#D1B4F4"/>
<path d="M300 176C300 178.209 298.209 180 296 180L218 180C213.582 180 210 176.418 210 172L210 158C210 153.582 213.582 150 218 150L292 150C296.418 150 300 153.582 300 158L300 176Z" fill="#D1B4F4"/>
<path d="M210 146C210 148.209 208.209 150 206 150L188 150C183.582 150 180 146.418 180 142L180 128C180 123.582 183.582 120 188 120L202 120C206.418 120 210 123.582 210 128L210 146Z" fill="#D1B4F4"/>
<path d="M330 146C330 148.209 328.209 150 326 150L308 150C303.582 150 300 146.418 300 142L300 68C300 63.5817 303.582 60 308 60L322 60C326.418 60 330 63.5817 330 68L330 146Z" fill="#D1B4F4"/>
<path d="M270 120L218 120C213.582 120 210 116.418 210 112L210 98C210 93.5817 213.582 90 218 90L262 90C266.418 90 270 93.5817 270 98L270 120Z" fill="#D1B4F4"/>
<path d="M210 120L225 120C225 120 219 120 214.5 115.5C210 111 210 105 210 105L210 120Z" fill="#D1B4F4"/>
<path d="M210 120L195 120C195 120 201 120 205.5 124.5C210 129 210 135 210 135L210 120Z" fill="#D1B4F4"/>
<path d="M210 120L210 135C210 135 210 129 214.5 124.5C219 120 225 120 225 120L210 120Z" fill="#D1B4F4"/>
<path d="M300 150L315 150C315 150 309 150 304.5 145.5C300 141 300 135 300 135L300 150Z" fill="#D1B4F4"/>
<path d="M300 150L285 150C285 150 291 150 295.5 154.5C300 159 300 165 300 165L300 150Z" fill="#D1B4F4"/>
<path d="M300 150L300 135C300 135 300 141 295.5 145.5C291 150 285 150 285 150L300 150Z" fill="#D1B4F4"/>
<path d="M210 150L225 150C225 150 219 150 214.5 145.5C210 141 210 135 210 135L210 150Z" fill="#D1B4F4"/>
<path d="M210 150L210 165C210 165 210 159 214.5 154.5C219 150 225 150 225 150L210 150Z" fill="#D1B4F4"/>
<path d="M210 150L210 135C210 135 210 141 205.5 145.5C201 150 195 150 195 150L210 150Z" fill="#D1B4F4"/>
<path d="M300 60L285 60C285 60 291 60 295.5 64.5C300 69 300 75 300 75L300 60Z" fill="#D1B4F4"/>
<path d="M300 60L300 75C300 75 300 69 304.5 64.5C309 60 315 60 315 60L300 60Z" fill="#D1B4F4"/>
<path d="M300 60L300 45C300 45 300 51 295.5 55.5C291 60 285 60 285 60L300 60Z" fill="#D1B4F4"/>
<path d="M660 56C660 58.2091 658.209 60 656 60L578 60C573.582 60 570 56.4183 570 52L570 38C570 33.5817 573.582 30 578 30L652 30C656.418 30 660 33.5817 660 38L660 56Z" fill="#D1B4F4"/>
<path d="M660 176C660 178.209 658.209 180 656 180L578 180C573.582 180 570 176.418 570 172L570 158C570 153.582 573.582 150 578 150L652 150C656.418 150 660 153.582 660 158L660 176Z" fill="#D1B4F4"/>
<path d="M570 146C570 148.209 568.209 150 566 150L548 150C543.582 150 540 146.418 540 142L540 128C540 123.582 543.582 120 548 120L562 120C566.418 120 570 123.582 570 128L570 146Z" fill="#D1B4F4"/>
<path d="M690 146C690 148.209 688.209 150 686 150L668 150C663.582 150 660 146.418 660 142L660 68C660 63.5817 663.582 60 668 60L682 60C686.418 60 690 63.5817 690 68L690 146Z" fill="#D1B4F4"/>
<path d="M630 120L578 120C573.582 120 570 116.418 570 112L570 98C570 93.5817 573.582 90 578 90L622 90C626.418 90 630 93.5817 630 98L630 120Z" fill="#D1B4F4"/>
<path d="M570 120L585 120C585 120 579 120 574.5 115.5C570 111 570 105 570 105L570 120Z" fill="#D1B4F4"/>
<path d="M570 120L555 120C555 120 561 120 565.5 124.5C570 129 570 135 570 135L570 120Z" fill="#D1B4F4"/>
<path d="M570 120L570 135C570 135 570 129 574.5 124.5C579 120 585 120 585 120L570 120Z" fill="#D1B4F4"/>
<path d="M660 150L675 150C675 150 669 150 664.5 145.5C660 141 660 135 660 135L660 150Z" fill="#D1B4F4"/>
<path d="M660 150L645 150C645 150 651 150 655.5 154.5C660 159 660 165 660 165L660 150Z" fill="#D1B4F4"/>
<path d="M660 150L660 135C660 135 660 141 655.5 145.5C651 150 645 150 645 150L660 150Z" fill="#D1B4F4"/>
<path d="M570 150L585 150C585 150 579 150 574.5 145.5C570 141 570 135 570 135L570 150Z" fill="#D1B4F4"/>
<path d="M570 150L570 165C570 165 570 159 574.5 154.5C579 150 585 150 585 150L570 150Z" fill="#D1B4F4"/>
<path d="M570 150L570 135C570 135 570 141 565.5 145.5C561 150 555 150 555 150L570 150Z" fill="#D1B4F4"/>
<path d="M660 60L645 60C645 60 651 60 655.5 64.5C660 69 660 75 660 75L660 60Z" fill="#D1B4F4"/>
<path d="M660 60L660 75C660 75 660 69 664.5 64.5C669 60 675 60 675 60L660 60Z" fill="#D1B4F4"/>
<path d="M660 60L660 45C660 45 660 51 655.5 55.5C651 60 645 60 645 60L660 60Z" fill="#D1B4F4"/>
<path d="M390 154C390 151.791 391.791 150 394 150H442C446.418 150 450 153.582 450 158V172C450 176.418 446.418 180 442 180H398C393.582 180 390 176.418 390 172V154Z" fill="#D1B4F4"/>
<path d="M360 4C360 1.79086 361.791 0 364 0L382 0C386.418 0 390 3.58172 390 8V142C390 146.418 386.418 150 382 150H368C363.582 150 360 146.418 360 142V4Z" fill="#D1B4F4"/>
<path d="M390 150L405 150C405 150 399 150 394.5 145.5C390 141 390 135 390 135L390 150Z" fill="#D1B4F4"/>
<path d="M390 150L390 135C390 135 390 141 385.5 145.5C381 150 375 150 375 150L390 150Z" fill="#D1B4F4"/>
<path d="M390 150L390 165C390 165 390 159 394.5 154.5C399 150 405 150 405 150L390 150Z" fill="#D1B4F4"/>
<path d="M480 154C480 151.791 481.791 150 484 150H532C536.418 150 540 153.582 540 158V172C540 176.418 536.418 180 532 180H488C483.582 180 480 176.418 480 172V154Z" fill="#D1B4F4"/>
<path d="M450 4C450 1.79086 451.791 0 454 0L472 0C476.418 0 480 3.58172 480 8V142C480 146.418 476.418 150 472 150H458C453.582 150 450 146.418 450 142V4Z" fill="#D1B4F4"/>
<path d="M480 150L495 150C495 150 489 150 484.5 145.5C480 141 480 135 480 135L480 150Z" fill="#D1B4F4"/>
<path d="M480 150L480 135C480 135 480 141 475.5 145.5C471 150 465 150 465 150L480 150Z" fill="#D1B4F4"/>
<path d="M480 150L480 165C480 165 480 159 484.5 154.5C489 150 495 150 495 150L480 150Z" fill="#D1B4F4"/>
</svg>
