<svg width="300" height="300" viewBox="0 0 300 300" fill="none" xmlns="http://www.w3.org/2000/svg">
<g clip-path="url(#clip0_198_24695)">
<rect width="300" height="300" rx="12" fill="#F6C177"/>
<path d="M90 214C90 211.791 91.7909 210 94 210H136C143.732 210 150 216.268 150 224V226C150 233.732 143.732 240 136 240H104C96.268 240 90 233.732 90 226V214Z" fill="#25233A"/>
<path d="M90 64C90 61.7909 91.7909 60 94 60H196C203.732 60 210 66.268 210 74V76C210 83.732 203.732 90 196 90H104C96.268 90 90 83.732 90 76V64Z" fill="#25233A"/>
<path d="M210 94C210 91.7909 211.791 90 214 90H226C233.732 90 240 96.268 240 104V136C240 143.732 233.732 150 226 150H224C216.268 150 210 143.732 210 136V94Z" fill="#25233A"/>
<path d="M60 94C60 91.7909 61.7909 90 64 90H76C83.732 90 90 96.268 90 104V196C90 203.732 83.732 210 76 210H74C66.268 210 60 203.732 60 196V94Z" fill="#25233A"/>
<path d="M150 150H196C203.732 150 210 156.268 210 164V166C210 173.732 203.732 180 196 180H164C156.268 180 150 173.732 150 166V150Z" fill="#25233A"/>
<path d="M210 150H195C195 150 201 150 205.5 154.5C210 159 210 165 210 165V150Z" fill="#25233A"/>
<path d="M210 150L225 150C225 150 219 150 214.5 145.5C210 141 210 135 210 135L210 150Z" fill="#25233A"/>
<path d="M210 150L210 135C210 135 210 141 205.5 145.5C201 150 195 150 195 150L210 150Z" fill="#25233A"/>
<path d="M90 90H75C75 90 81 90 85.5 94.5C90 99 90 105 90 105V90Z" fill="#25233A"/>
<path d="M90 90L105 90C105 90 99 90 94.5 85.5C90 81 90 75 90 75L90 90Z" fill="#25233A"/>
<path d="M90 90L90 105C90 105 90 99 94.5 94.5C99 90 105 90 105 90L90 90Z" fill="#25233A"/>
<path d="M210 90H195C195 90 201 90 205.5 94.5C210 99 210 105 210 105V90Z" fill="#25233A"/>
<path d="M210 90L210 75C210 75 210 81 205.5 85.5C201 90 195 90 195 90L210 90Z" fill="#25233A"/>
<path d="M210 90L210 105C210 105 210 99 214.5 94.5C219 90 225 90 225 90L210 90Z" fill="#25233A"/>
<path d="M90 210L105 210C105 210 99 210 94.5 205.5C90 201 90 195 90 195L90 210Z" fill="#25233A"/>
<path d="M90 210L90 195C90 195 90 201 85.5 205.5C81 210 75 210 75 210L90 210Z" fill="#25233A"/>
<path d="M90 210L90 225C90 225 90 219 94.5 214.5C99 210 105 210 105 210L90 210Z" fill="#25233A"/>
</g>
<defs>
<clipPath id="clip0_198_24695">
<rect width="300" height="300" rx="40" fill="white"/>
</clipPath>
</defs>
</svg>
