<svg fill="none" height="25" viewBox="0 0 24 25" width="24" xmlns="http://www.w3.org/2000/svg"><path d="m6.00024 21.5h3m5.99996 0h3m-.5-14.5v8m-14.49996-8.3v8.6c0 1.1201 0 1.6802.21799 2.108.19175.3763.49771.6823.87403.874.42783.218.98788.218 2.10798.218h11.59996c1.1201 0 1.6802 0 2.108-.218.3763-.1917.6823-.4977.8741-.874.2179-.4278.2179-.9879.2179-2.108v-8.6c0-1.1201 0-1.68016-.2179-2.10798-.1918-.37632-.4977-.68228-.8741-.87403-.4278-.21799-.9879-.21799-2.108-.21799h-11.59996c-1.1201 0-1.68015 0-2.10798.21799-.37632.19174-.68228.4977-.87403.87403-.21799.42782-.21799.98787-.21799 2.10798zm8.49996 4.3c0 1.3807-1.1192 2.5-2.49996 2.5-1.38071 0-2.5-1.1193-2.5-2.5 0-1.38071 1.11929-2.5 2.5-2.5 1.38076 0 2.49996 1.11929 2.49996 2.5z" stroke="#a3dbe4" stroke-linecap="round" stroke-linejoin="round" stroke-width="1.5"/></svg>