<svg width="97" height="96" viewBox="0 0 97 96" fill="none" xmlns="http://www.w3.org/2000/svg">
<path d="M36.5 44L44.5 52L62.5 34M48.4726 20.5433C40.4752 11.1936 27.139 8.67857 17.1188 17.2401C7.09858 25.8015 5.68787 40.1159 13.5568 50.2416C19.5004 57.8898 36.3852 73.2438 44.292 80.2995C45.7455 81.5966 46.4723 82.2451 47.3233 82.5004C48.0621 82.722 48.8831 82.722 49.6219 82.5004C50.4729 82.2451 51.1997 81.5966 52.6532 80.2995C60.56 73.2438 77.4448 57.8898 83.3884 50.2416C91.2573 40.1159 90.0189 25.7115 79.8264 17.2401C69.634 8.76863 56.47 11.1936 48.4726 20.5433Z" stroke="#A3DBE4" stroke-width="3" stroke-linecap="round" stroke-linejoin="round"/>
</svg>
