<svg width="166" height="166" viewBox="0 0 166 166" fill="none" xmlns="http://www.w3.org/2000/svg">
<path d="M27.6624 138.312C27.2531 138.312 26.9504 138.312 26.6461 138.312C22.1454 138.312 17.6431 138.315 13.1424 138.312C6.66777 138.306 1.45656 134.034 0.222487 127.696C0.0711242 126.919 0.0108879 126.113 0.00934339 125.32C-0.00146825 94.1185 7.62726e-05 62.9166 7.62726e-05 31.7162C7.62726e-05 29.1521 1.49517 27.66 4.08379 27.6585C11.621 27.6538 19.1567 27.6569 26.694 27.6569H27.613C27.6315 27.2754 27.6593 26.9541 27.6593 26.6328C27.6624 19.1475 27.6593 11.6621 27.6624 4.17673C27.6624 1.42571 29.0942 0 31.8542 0C63.0041 0 94.154 0 125.304 0C132.616 0 138.295 5.69357 138.298 13.0167C138.298 17.5441 138.298 22.0715 138.298 26.5988V27.6137C138.638 27.6291 138.936 27.6538 139.234 27.6538C143.966 27.6631 148.7 27.5951 153.431 27.6924C160.389 27.8345 165.919 33.4215 165.959 40.3755C166.016 50.3293 166.011 60.2845 165.96 70.2382C165.925 77.3235 160.154 82.9584 153.06 82.963C148.456 82.9661 143.852 82.963 139.248 82.963H138.298V83.9114C138.298 88.516 138.299 93.1206 138.298 97.7237C138.295 104.891 132.599 110.609 125.423 110.62C115.597 110.634 105.77 110.632 95.9456 110.62C88.6771 110.611 83.0134 104.906 83.0118 97.6233C83.0118 93.0449 83.0118 88.4666 83.0118 83.8883C83.0118 83.6102 83.0118 83.3337 83.0118 82.9646H83.9802C97.3558 82.9646 110.731 82.9646 124.107 82.9646C131.142 82.9646 137.075 77.8827 138.119 70.9457C138.233 70.1872 138.293 69.4118 138.293 68.6441C138.306 59.7964 138.301 50.9471 138.301 42.0994C138.301 33.8896 132.066 27.6585 123.838 27.6554C112.109 27.6507 100.38 27.6554 88.6493 27.6554C73.1902 27.6554 57.7311 27.6554 42.272 27.6554C33.8729 27.6554 27.6593 33.8787 27.6593 42.2924C27.6593 69.4551 27.6593 96.6177 27.6593 123.78C27.6593 132.05 33.9409 138.315 42.2303 138.317C51.465 138.317 60.6997 138.312 69.9328 138.319C76.3627 138.323 81.6526 142.583 82.7554 148.915C83.5138 153.265 83.1045 157.505 80.1575 161.118C77.6044 164.249 74.2729 165.934 70.2402 165.957C60.312 166.014 50.3823 166.013 40.4541 165.963C33.337 165.928 27.681 160.151 27.6624 153.017C27.6516 148.465 27.6609 143.912 27.6609 139.36C27.6609 139.054 27.6609 138.748 27.6609 138.315L27.6624 138.312Z" fill="currentColor"/>
</svg>
