<svg width="28" height="35" viewBox="0 0 28 35" fill="none" xmlns="http://www.w3.org/2000/svg">
<path fill-rule="evenodd" clip-rule="evenodd" d="M28 17.5C28 28 14 35 14 35C14 35 0 28 0 17.5V5.25L7 2.625L14 0L28 5.25V17.5ZM3.5 17.5V7.6755L8.22893 5.90215L14 3.738L24.5 7.6755V17.5C24.5 21.1875 21.9861 24.674 18.6952 27.5535C17.1233 28.9289 15.5349 30.0227 14.3325 30.7742C14.2177 30.846 14.1067 30.9144 14 30.9794C13.8933 30.9144 13.7823 30.846 13.6675 30.7742C12.4651 30.0227 10.8767 28.9289 9.30477 27.5535C6.01389 24.674 3.5 21.1875 3.5 17.5ZM6.9999 22.75L10.4265 22.75L13.9999 10.5115L17.5733 22.75H20.9999L16.4625 7.74997L11.5478 7.74997L6.9999 22.75Z" fill="#73B4F0"/>
</svg>
