<svg width="24" height="24" viewBox="0 0 24 24" fill="none" xmlns="http://www.w3.org/2000/svg">
<path d="M10.9931 21.0132C11.2663 21.2688 11.6323 21.4045 11.9998 21.3974C12.3724 21.4192 12.7426 21.2826 13.0289 21.026L13.0289 21.026L13.0299 21.025C13.306 20.7667 13.4867 20.4096 13.5113 20.0148L13.6558 18.7503C15.1917 18.2719 16.1239 17.0486 16.3547 15.2037L17.7417 4.2092C18.0201 4.15914 18.309 4.14856 18.5911 4.14856C19.0174 4.14856 19.4437 4.20244 19.8599 4.3102L19.8599 20.9999V21.0666H19.9266H22.6667H22.7333V20.9999L22.7333 7.53865C22.7333 5.70665 21.9316 4.38754 20.4768 3.83504V3.00829C20.4768 2.49381 20.3232 2.05832 20.0514 1.75048C19.7791 1.44196 19.3921 1.26634 18.9365 1.26634C18.4837 1.26634 18.106 1.41339 17.8242 1.69751C17.5435 1.98059 17.3636 2.39388 17.2932 2.91682L17.2931 2.91717L17.1951 3.67633C16.4064 3.91375 15.7746 4.36057 15.3062 5.0134C14.8302 5.67679 14.5252 6.5496 14.3918 7.62483L14.3918 7.62501L13.1082 18.2185C12.3761 18.3578 11.6239 18.3578 10.8918 18.2185L9.6082 7.62501L9.60813 7.62447C9.46903 6.54949 9.1641 5.6768 8.6896 5.01348C8.22262 4.36066 7.5936 3.91377 6.80494 3.67633L6.70689 2.91717L6.70684 2.91682C6.6365 2.3942 6.45962 1.98085 6.18023 1.69764C5.89971 1.41328 5.52192 1.26634 5.06351 1.26634C4.60787 1.26634 4.22091 1.44196 3.94859 1.75048C3.67687 2.05832 3.5232 2.49381 3.5232 3.00829V3.83525C2.8 4.11336 2.23855 4.57383 1.85657 5.19274C1.46735 5.82338 1.26668 6.61483 1.26668 7.53865L1.26668 20.9999V21.0666H1.33334H4.0734H4.14007V20.9999L4.14007 4.3102C4.55627 4.20244 4.98259 4.14856 5.4089 4.14856C5.69916 4.14856 5.97915 4.16936 6.25857 4.21095L7.6453 15.2035C7.76149 16.1501 8.0497 16.9262 8.50914 17.5234C8.9608 18.1104 9.57505 18.5208 10.3447 18.751L10.5003 20.0152C10.5003 20.0155 10.5003 20.0158 10.5004 20.0162C10.5367 20.3982 10.717 20.7549 10.9931 21.0132ZM11.1164 19.9537L10.9891 18.9101C11.6707 19.0096 12.3525 19.009 13.0342 18.9084L12.9067 19.9537L12.9062 19.9536V19.9617C12.9062 20.0676 12.8749 20.1876 12.8317 20.2878C12.7776 20.3982 12.7137 20.485 12.629 20.561C12.5407 20.6401 12.4455 20.7042 12.3431 20.7356C12.2319 20.7698 12.115 20.7907 12.0126 20.7802L12.0126 20.7795L12.0025 20.78C11.779 20.7909 11.5661 20.7149 11.3948 20.5617C11.2342 20.4076 11.1274 20.1879 11.1168 19.9586L11.117 19.9586L11.1164 19.9537ZM1.89506 7.5505V7.55045C1.89506 6.06688 2.4624 5.03833 3.5232 4.53895L3.5232 20.4496H1.88361L1.89506 7.5505ZM8.26116 15.1282L8.26115 15.1281L6.90501 4.39585C8.08823 4.86678 8.78173 5.94861 9.00384 7.72389L10.257 18.0556C9.12691 17.6103 8.44898 16.6339 8.26116 15.1282ZM15.7734 15.1163L15.7734 15.1164C15.6765 15.893 15.452 16.5247 15.103 17.0165C14.7744 17.4795 14.3333 17.8214 13.7777 18.0432L15.0307 7.72389C15.2528 5.94862 15.9463 4.86679 17.1295 4.39586L15.7734 15.1163ZM5.42129 3.51972C4.99785 3.50868 4.57528 3.55964 4.1631 3.65295V3.03189C4.1631 2.67658 4.25261 2.39848 4.40954 2.21041C4.56518 2.02389 4.79298 1.91878 5.08654 1.91878C5.38235 1.91878 5.61117 2.01078 5.77925 2.18845C5.94895 2.36783 6.06341 2.64158 6.11417 3.01703C6.11417 3.01709 6.11418 3.01716 6.11419 3.01722L6.18379 3.55726C5.93071 3.52933 5.67085 3.51974 5.42129 3.51972ZM18.6504 3.51973C18.3877 3.50904 18.1351 3.52732 17.8854 3.55689L17.9549 3.01722C17.9549 3.01716 17.9549 3.01709 17.9549 3.01702C18.0056 2.64204 18.1228 2.36818 18.294 2.18864C18.4637 2.01062 18.6928 1.91878 18.9826 1.91878C19.2695 1.91878 19.4977 2.02625 19.6553 2.21487C19.814 2.40481 19.906 2.68318 19.906 3.03189V3.65569C19.4933 3.56265 19.0716 3.52059 18.6504 3.51973ZM22.1395 7.55045L22.1395 20.4496H20.5114L20.5114 4.53895C21.5722 5.03833 22.1395 6.06688 22.1395 7.55045Z" fill="#FEFCFA" stroke="#FEFCFA" stroke-width="0.133333"/>
</svg>
