<svg width="97" height="96" viewBox="0 0 97 96" fill="none" xmlns="http://www.w3.org/2000/svg">
<path d="M43.4718 20.3693C45.0974 20.1289 46.7744 20 48.5017 20C68.9217 20 82.3212 38.0194 86.8228 45.1473C87.3676 46.01 87.6401 46.4414 87.7925 47.1067C87.907 47.6064 87.9069 48.3947 87.7924 48.8943C87.6398 49.5596 87.3654 49.9938 86.8167 50.8623C85.6174 52.7606 83.7887 55.4284 81.366 58.3218M27.3973 26.8601C18.749 32.7268 12.8778 40.8775 10.1844 45.1411C9.63714 46.0075 9.3635 46.4407 9.21096 47.1059C9.09639 47.6056 9.09634 48.3938 9.21085 48.8934C9.36332 49.5587 9.63572 49.9901 10.1805 50.8527C14.6822 57.9806 28.0816 76 48.5017 76C56.7353 76 63.8275 73.0704 69.6553 69.1064M12.5017 12L84.5017 84M40.0164 39.5147C37.8448 41.6863 36.5017 44.6863 36.5017 48C36.5017 54.6274 41.8742 60 48.5017 60C51.8154 60 54.8154 58.6569 56.9869 56.4853" stroke="#A3DBE4" stroke-width="3" stroke-linecap="round" stroke-linejoin="round"/>
</svg>
