<svg width="24" height="24" viewBox="0 0 24 24" fill="none" xmlns="http://www.w3.org/2000/svg">
<path d="M10.4997 9.00224C10.6759 8.50136 11.0237 8.079 11.4815 7.80998C11.9392 7.54095 12.4774 7.4426 13.0008 7.53237C13.5241 7.62213 13.9987 7.89421 14.3407 8.30041C14.6826 8.70661 14.8698 9.22072 14.869 9.75168C14.869 11.2506 12.6207 12 12.6207 12M12.6496 15H12.6596M12.4997 20C17.1942 20 20.9997 16.1944 20.9997 11.5C20.9997 6.80558 17.1942 3 12.4997 3C7.80533 3 3.99975 6.80558 3.99975 11.5C3.99975 12.45 4.15559 13.3636 4.44312 14.2166C4.55132 14.5376 4.60542 14.6981 4.61517 14.8214C4.62481 14.9432 4.61753 15.0286 4.5874 15.1469C4.55689 15.2668 4.48954 15.3915 4.35484 15.6408L2.71918 18.6684C2.48587 19.1002 2.36922 19.3161 2.39532 19.4828C2.41807 19.6279 2.50349 19.7557 2.62892 19.8322C2.77292 19.9201 3.01705 19.8948 3.50529 19.8444L8.62631 19.315C8.78139 19.299 8.85893 19.291 8.92961 19.2937C8.99912 19.2963 9.04819 19.3029 9.11598 19.3185C9.1849 19.3344 9.27157 19.3678 9.4449 19.4345C10.393 19.7998 11.423 20 12.4997 20Z" stroke="#F6C177" stroke-width="1.5" stroke-linecap="round" stroke-linejoin="round"/>
</svg>
