<svg width="24" height="25" viewBox="0 0 24 25" fill="none" xmlns="http://www.w3.org/2000/svg">
<path d="M3.95117 16.3096C5.54508 17.5152 7.95174 18.7749 11.8304 18.7749C15.7091 18.7749 18.1157 17.5152 19.7096 16.3096" stroke="white" stroke-linecap="round"/>
<path d="M14.0098 6.41018C13.3518 6.3158 12.6319 6.2627 11.8303 6.2627C11.0002 6.2627 10.2582 6.3202 9.58203 6.42167" stroke="white" stroke-linecap="round"/>
<path d="M9.71676 6.40285L8.8724 4.74121C7.08785 4.95556 5.39078 5.63439 3.9507 6.70989C3.9507 6.70989 1.4447 10.3628 0.993164 17.5467C3.53529 20.4771 7.39589 20.4997 7.39589 20.4997L8.89497 18.4904" stroke="white" stroke-linecap="round"/>
<path d="M14.765 18.4904L16.2641 20.4861C16.2641 20.4861 20.1247 20.4771 22.6668 17.5467C22.2153 10.3673 19.7093 6.70989 19.7093 6.70989C19.7093 6.70989 17.4516 4.93988 14.7876 4.74121L13.9658 6.40736" stroke="white" stroke-linecap="round"/>
<path d="M8.62817 14.6307C9.58078 14.6307 10.353 13.7493 10.353 12.662C10.353 11.5748 9.58078 10.6934 8.62817 10.6934C7.67556 10.6934 6.90332 11.5748 6.90332 12.662C6.90332 13.7493 7.67556 14.6307 8.62817 14.6307Z" stroke="white" stroke-linecap="round"/>
<path d="M15.0315 14.6307C15.9841 14.6307 16.7563 13.7493 16.7563 12.662C16.7563 11.5748 15.9841 10.6934 15.0315 10.6934C14.0789 10.6934 13.3066 11.5748 13.3066 12.662C13.3066 13.7493 14.0789 14.6307 15.0315 14.6307Z" stroke="white" stroke-linecap="round"/>
</svg>
