<svg viewBox="0 0 527 537" fill="none" xmlns="http://www.w3.org/2000/svg">
<path d="M269.426 143.85C243.301 144.6 227.301 158.6 221.801 162.975C214.551 168.85 169.301 206.475 161.801 212.725C157.676 216.85 132.702 236.339 132.051 263.225C131.413 289.59 160.301 322.475 160.301 322.475C160.301 322.475 177.801 344.475 196.301 361.975C218.176 380.6 239.801 396.474 262.051 396.225C284.301 395.974 302.809 379.77 310.301 374.1C319.915 367.184 351.593 340.555 366.801 328.1C377.964 317.932 394.551 303.92 394.551 275.475C394.551 246.035 372.926 220.35 370.551 217.725C356.33 201.076 341.271 184.707 325.051 168.725C325.051 168.725 303.921 144.457 269.426 143.85ZM267.993 152.73C299.891 153.292 320.403 176.352 320.403 176.352C335.402 191.131 349.202 206.642 362.352 222.037C364.548 224.464 385.108 248.404 385.108 275.627C385.108 301.931 364.823 319.275 358.214 324.17C342.833 335.102 314.879 359.527 306.762 366.266C302.574 369.476 282.72 386.493 262.145 386.725C236.709 386.072 221.396 373.071 201.168 355.848C184.06 339.666 167.171 318.704 167.171 318.704C167.171 318.704 140.016 287.853 140.606 263.473C141.208 238.611 166.247 219.971 170.061 216.156C176.997 210.377 217.957 176.026 224.661 170.594C229.747 166.548 243.835 153.424 267.993 152.73Z" fill="#7C7A9C"/>
<path d="M295.789 104.213C257.713 105.414 224.893 126.135 215.872 131.952C203.956 139.762 137.205 186.72 124.837 195.026C117.871 200.502 84.6251 222.166 74.7785 265.518C67.5738 300.308 96.0236 343.585 96.0236 343.585C96.0236 343.585 118.046 379.094 140.715 402.032C166.48 427.387 190.727 437.947 226.938 438.687C259.275 438.177 296.428 419.708 316.337 407.039C336.437 395.451 370.083 372.525 394.581 354.997C406.655 346.441 438.412 321.71 447.016 278.536C456 233.454 422.144 187.068 419.059 182.652C412.168 172.385 390.538 148.332 382.03 140.195C376.197 135.157 345.684 104.735 295.789 104.213ZM293.097 115.588C339.236 116.07 359.508 137.057 366.137 142.449C387.204 160.677 393.455 168.946 412.047 194.189C415.716 198.876 441.028 240.303 434.545 276.219C428.28 310.923 403.854 332.357 386.471 346.469C357.047 370.21 310.894 397.257 305.911 400.467C279.449 416.758 257.159 426.925 227.257 427.396C197.621 427.072 176.794 422.208 144.481 390.28C123.518 369.068 107.462 340.315 107.462 340.315C107.462 340.315 79.342 298.072 86.0041 265.901C92.7978 233.095 127.728 204.91 134.877 200.112C146.314 192.431 204.888 151.059 215.908 143.837C224.249 138.458 257.887 116.698 293.097 115.588Z" fill="#7C7A9C"/>
<path d="M244.154 3.87546C191.093 17.6642 163.086 41.9005 135.219 71.9307C94.1599 115.643 64.8721 158.657 50.272 177.89C38.2344 194.241 -5.93611 256.39 0.666911 325.833C5.60067 377.138 42.3484 423.967 52.2479 433.16C52.2479 433.16 102.35 480.612 144.431 508.27C191.941 538.618 248.252 540.645 290.004 531.978C339.181 519.45 376.569 485.07 405.867 454.299C429.02 430.411 449.064 409.466 475.419 373.243C487.205 356.475 525.268 308.638 526.452 240.116C528.121 143.476 460.251 91.2041 453.949 85.4772C431.919 64.4742 390.458 36.8707 374.874 27.2058C364.429 21.3998 314.615 -11.0155 244.154 3.87546ZM240.41 20.5948C302.941 7.32487 327.156 22.0267 355.253 34.1188C392.989 55.1374 412.363 70.7975 449.727 103.231C475.531 127.217 507.61 168.643 509.815 235.748C511.622 290.705 488.153 327.867 469.944 354.731C439.058 399.977 408.363 430.393 396.587 443.014C372.045 467.372 342.174 500.224 293.401 514.934C251.542 523.757 203.807 527.523 150.707 494.391C111.794 468.816 62.478 422.484 62.478 422.484C43.9164 400.917 18.9661 365.113 14.0766 314.237C9.09054 262.356 33.7054 225.749 54.1912 196.074C67.2366 178.004 107.607 124.731 119.915 110.317C141.395 85.7889 176.093 36.4704 240.41 20.5948Z" fill="#7C7A9C"/>
</svg>
