<svg width="28" height="34" viewBox="0 0 28 34" fill="none" xmlns="http://www.w3.org/2000/svg">
<path d="M14 32C14 32 26 26 26 17V6.5L14 2L2 6.5V17C2 26 14 32 14 32Z" stroke="url(#paint0_linear_102_69)" stroke-width="3" stroke-linecap="round" stroke-linejoin="round"/>
<path d="M11.7896 8.26845C12.0903 7.50321 12.8288 7 13.651 7L13.9927 7C14.8141 7 15.5519 7.50214 15.8532 8.2662L20.5861 20.2662C21.1037 21.5786 20.1364 23 18.7256 23H18.3748L13.3622 9.34965H14.1902L9.17762 23H8.93493C7.52516 23 6.55786 21.5805 7.07352 20.2685L11.7896 8.26845Z" fill="url(#paint1_linear_102_69)"/>
<defs>
<linearGradient id="paint0_linear_102_69" x1="27.5" y1="1" x2="1.5" y2="34" gradientUnits="userSpaceOnUse">
<stop stop-color="#1FD7FF"/>
<stop offset="1" stop-color="#8D7AFF"/>
</linearGradient>
<linearGradient id="paint1_linear_102_69" x1="27.5" y1="0.500001" x2="0.999999" y2="33.5" gradientUnits="userSpaceOnUse">
<stop stop-color="#1FD7FF"/>
<stop offset="1" stop-color="#8D7AFF"/>
</linearGradient>
</defs>
</svg>
